<svg width="24.000000" height="24.000000" viewBox="0 0 24 24" fill="none" xmlns="http://www.w3.org/2000/svg" xmlns:xlink="http://www.w3.org/1999/xlink">
	<desc>
			Created with Pixso.
	</desc>
	<defs>
		<clipPath id="clip129_161">
			<rect id="Иконка не подходит" width="23.428572" height="24.000000" fill="white" fill-opacity="0"/>
		</clipPath>
	</defs>
	<g clip-path="url(#clip129_161)">
		<path id="Vector" d="M0.41 14.29C0.87 14.95 1.67 15.32 2.61 15.32L7.43 15.32C7.74 15.32 8.05 15.45 8.24 15.7C8.44 15.94 8.53 16.25 8.48 16.61L7.88 20.46C7.64 21.59 8.4 22.9 9.54 23.29C10.62 23.68 11.86 23.15 12.38 22.38L17.32 15.03L17.47 14.79L17.47 4.4L17.28 4.21L13.56 1.33C13.06 0.84 11.94 0.57 11.15 0.57L6.58 0.57C5.01 0.57 3.43 1.75 3.06 3.19L0.16 11.99C-0.13 12.82 -0.04 13.65 0.41 14.29Z" fill="#3575DE" fill-opacity="1.000000" fill-rule="nonzero"/>
		<path id="Vector" d="M19.72 18.57L20.92 18.57C22.74 18.57 23.49 17.87 23.49 16.13L23.49 4.31C23.49 2.57 22.74 1.87 20.92 1.87L19.72 1.87C17.9 1.87 17.16 2.57 17.16 4.31L17.16 16.13C17.16 17.87 17.9 18.57 19.72 18.57Z" fill="#3575DE" fill-opacity="1.000000" fill-rule="nonzero"/>
	</g>
</svg>
