<svg width="24.000000" height="24.000000" viewBox="0 0 24 24" fill="none" xmlns="http://www.w3.org/2000/svg" xmlns:xlink="http://www.w3.org/1999/xlink">
	<desc>
			Created with Pixso.
	</desc>
	<defs>
		<clipPath id="clip129_157">
			<rect id="Иконка подходит" width="23.428572" height="24.000000" fill="white" fill-opacity="0"/>
		</clipPath>
	</defs>
	<g clip-path="url(#clip129_157)">
		<path id="Vector" d="M23.07 9.7C22.62 9.04 21.81 8.67 20.88 8.67L16.06 8.67C15.75 8.67 15.44 8.54 15.25 8.29C15.04 8.05 14.96 7.74 15 7.38L15.6 3.53C15.85 2.4 15.08 1.09 13.95 0.7C12.87 0.31 11.63 0.84 11.11 1.61L6.16 8.96L6.02 9.2L6.02 19.59L6.2 19.78L9.93 22.66C10.43 23.15 11.54 23.42 12.33 23.42L16.91 23.42C18.48 23.42 20.05 22.24 20.42 20.79L23.32 12C23.61 11.15 23.53 10.34 23.07 9.7Z" fill="#3575DE" fill-opacity="1.000000" fill-rule="nonzero"/>
		<path id="Vector" d="M3.76 5.42L2.56 5.42C0.74 5.42 0 6.12 0 7.86L0 19.68C0 21.42 0.74 22.12 2.56 22.12L3.76 22.12C5.58 22.12 6.33 21.42 6.33 19.68L6.33 7.86C6.33 6.12 5.58 5.42 3.76 5.42Z" fill="#3575DE" fill-opacity="1.000000" fill-rule="nonzero"/>
	</g>
</svg>
