<svg width="16.000000" height="20.000000" viewBox="0 0 16 20" fill="none" xmlns="http://www.w3.org/2000/svg" xmlns:xlink="http://www.w3.org/1999/xlink">
	<desc>
			Created with Pixso.
	</desc>
	<defs/>
	<path id="Vector" d="M8 0C5.87 0 3.84 0.84 2.34 2.34C0.84 3.84 0 5.87 0 8C0 13.39 7.05 19.5 7.34 19.75C7.53 19.91 7.76 20 8 20C8.23 20 8.46 19.91 8.65 19.75C9 19.5 16 13.39 16 8C16 5.87 15.15 3.84 13.65 2.34C12.15 0.84 10.12 0 8 0ZM8 17.64C5.86 15.64 2 11.33 2 8C2 6.4 2.63 4.88 3.75 3.75C4.88 2.63 6.4 2 8 2C9.59 2 11.11 2.63 12.24 3.75C13.36 4.88 14 6.4 14 8C14 11.33 10.13 15.66 8 17.64ZM8 4C7.2 4 6.43 4.23 5.77 4.67C5.11 5.11 4.6 5.73 4.3 6.46C4 7.2 3.92 8 4.07 8.78C4.23 9.55 4.61 10.26 5.17 10.82C5.73 11.38 6.44 11.76 7.21 11.92C7.99 12.07 8.8 11.99 9.53 11.69C10.26 11.39 10.88 10.87 11.32 10.22C11.76 9.56 12 8.79 12 8C12 6.93 11.57 5.92 10.82 5.17C10.07 4.42 9.06 4 8 4ZM8 10C7.6 10 7.21 9.88 6.88 9.66C6.56 9.44 6.3 9.13 6.15 8.76C6 8.39 5.96 7.99 6.03 7.6C6.11 7.22 6.3 6.86 6.58 6.58C6.86 6.3 7.22 6.11 7.6 6.03C7.99 5.96 8.4 6 8.76 6.15C9.13 6.3 9.44 6.56 9.66 6.88C9.88 7.21 10 7.6 10 8C10 8.53 9.78 9.03 9.41 9.41C9.03 9.78 8.53 10 8 10Z" fill="#242424" fill-opacity="1.000000" fill-rule="nonzero"/>
</svg>
