<svg width="20.000000" height="16.000000" viewBox="0 0 20 16" fill="none" xmlns="http://www.w3.org/2000/svg" xmlns:xlink="http://www.w3.org/1999/xlink">
	<desc>
			Created with Pixso.
	</desc>
	<defs/>
	<path id="Vector" d="M17 0L3 0C2.2 0 1.44 0.31 0.87 0.87C0.31 1.44 0 2.2 0 3L0 13C0 13.79 0.31 14.55 0.87 15.12C1.44 15.68 2.2 16 3 16L17 16C17.79 16 18.55 15.68 19.12 15.12C19.68 14.55 20 13.79 20 13L20 3C20 2.2 19.68 1.44 19.12 0.87C18.55 0.31 17.79 0 17 0ZM3 2L17 2C17.26 2 17.51 2.1 17.7 2.29C17.89 2.48 18 2.73 18 3L10 7.87L2 3C2 2.73 2.1 2.48 2.29 2.29C2.48 2.1 2.73 2 3 2ZM18 13C18 13.26 17.89 13.51 17.7 13.7C17.51 13.89 17.26 14 17 14L3 14C2.73 14 2.48 13.89 2.29 13.7C2.1 13.51 2 13.26 2 13L2 5.27L9.48 9.85C9.63 9.93 9.8 9.98 9.98 9.98C10.15 9.98 10.32 9.93 10.48 9.85L18 5.27L18 13Z" fill="#242424" fill-opacity="1.000000" fill-rule="nonzero"/>
</svg>
