<svg width="20.000000" height="20.000000" viewBox="0 0 20 20" fill="none" xmlns="http://www.w3.org/2000/svg" xmlns:xlink="http://www.w3.org/1999/xlink">
	<desc>
			Created with Pixso.
	</desc>
	<defs/>
	<path id="Vector" d="M7.45 0.33C7.01 0.11 6.52 -0.01 6.02 0L3.02 0C2.59 -0.01 2.16 0.08 1.77 0.26C1.38 0.43 1.03 0.69 0.74 1.01C0.46 1.34 0.25 1.72 0.12 2.13C0 2.54 -0.04 2.98 0.02 3.41C0.55 7.56 2.44 11.43 5.39 14.4C5.42 14.42 5.44 14.45 5.46 14.47C8.45 17.45 12.35 19.35 16.54 19.87L16.92 19.87C17.66 19.87 18.37 19.6 18.92 19.11C19.24 18.82 19.49 18.48 19.66 18.09C19.84 17.7 19.92 17.28 19.92 16.86L19.92 13.86C19.92 13.84 19.92 13.83 19.92 13.82C19.9 13.14 19.65 12.48 19.21 11.96C18.76 11.43 18.14 11.08 17.45 10.96C17.23 10.96 17 10.89 16.78 10.84C16.34 10.74 15.9 10.61 15.47 10.45C15.01 10.28 14.5 10.29 14.04 10.47C13.72 10.6 13.45 10.81 13.23 11.07C13.14 11.18 13.06 11.31 12.99 11.45L12.78 11.88L12.77 11.9C12.76 11.89 12.74 11.88 12.72 11.87C12.15 11.55 11.61 11.18 11.1 10.77C10.75 10.5 10.42 10.21 10.11 9.9C9.8 9.58 9.5 9.25 9.23 8.9C9.22 8.89 9.21 8.87 9.2 8.86C8.98 8.58 8.77 8.29 8.57 8C8.41 7.75 8.26 7.49 8.11 7.24L8.41 7.04L8.53 6.96C8.98 6.74 9.32 6.36 9.51 5.91C9.69 5.45 9.7 4.94 9.53 4.48C9.37 4.05 9.25 3.61 9.14 3.17C9.09 2.95 9.05 2.72 9.02 2.49C8.9 1.78 8.53 1.14 7.98 0.69C7.82 0.55 7.64 0.43 7.45 0.33ZM7.08 2.82C7.08 2.81 7.08 2.81 7.08 2.81C7.08 2.78 7.07 2.76 7.07 2.74C7.01 2.54 6.89 2.36 6.73 2.23C6.68 2.19 6.62 2.16 6.57 2.13C6.42 2.05 6.25 2.01 6.08 2.02L3.08 2.02C2.94 2.02 2.8 2.05 2.67 2.1C2.54 2.16 2.43 2.25 2.33 2.36C2.24 2.47 2.17 2.6 2.12 2.74C2.08 2.88 2.07 3.03 2.08 3.18C2.54 6.88 4.21 10.33 6.82 13C6.85 13.03 6.88 13.06 6.91 13.09C9.51 15.7 12.89 17.4 16.54 17.92C16.62 17.93 16.7 17.94 16.78 17.95C16.78 17.95 16.79 17.95 16.79 17.96C16.94 17.97 17.09 17.96 17.23 17.92C17.37 17.87 17.5 17.8 17.61 17.71C17.72 17.61 17.81 17.5 17.86 17.37C17.92 17.24 17.95 17.1 17.95 16.96L17.93 13.84C17.94 13.6 17.86 13.38 17.72 13.19C17.64 13.1 17.55 13.02 17.45 12.96C17.35 12.9 17.25 12.86 17.14 12.84C17.13 12.83 17.13 12.83 17.12 12.83C16.85 12.79 16.59 12.74 16.33 12.69C15.8 12.56 15.27 12.41 14.75 12.23L14.13 13.63C14.08 13.75 14 13.85 13.9 13.94C13.8 14.03 13.69 14.1 13.56 14.15C13.32 14.25 13.05 14.25 12.8 14.15C10.35 13 8.29 11.2 6.82 8.97C6.52 8.51 6.25 8.04 6 7.55C5.93 7.42 5.87 7.28 5.8 7.15C5.75 7.03 5.72 6.9 5.71 6.77C5.71 6.64 5.72 6.52 5.76 6.4C5.77 6.39 5.77 6.38 5.77 6.38C5.82 6.25 5.89 6.14 5.98 6.04C6.07 5.95 6.17 5.87 6.29 5.82L7.43 5.29L7.69 5.17C7.5 4.66 7.35 4.14 7.23 3.62C7.17 3.35 7.13 3.09 7.08 2.82Z" fill="#242424" fill-opacity="1.000000" fill-rule="evenodd"/>
</svg>
