<svg width="30.000000" height="25.000000" viewBox="0 0 30 25" fill="none" xmlns="http://www.w3.org/2000/svg" xmlns:xlink="http://www.w3.org/1999/xlink">
	<desc>
			Created with Pixso.
	</desc>
	<defs/>
	<path d="M1.73 10.09C9.83 6.56 15.23 4.24 17.93 3.11C25.65 -0.09 27.26 -0.65 28.29 -0.67C28.68 -0.68 29.05 -0.57 29.37 -0.35C29.59 -0.16 29.73 0.11 29.77 0.4C29.82 0.77 29.84 1.13 29.81 1.5C29.4 5.9 27.58 16.55 26.66 21.47C26.28 23.54 25.51 24.25 24.77 24.32C23.16 24.46 21.92 23.25 20.36 22.23C17.92 20.62 16.54 19.63 14.16 18.06C11.42 16.25 13.2 15.26 14.76 13.64C15.17 13.21 22.27 6.75 22.41 6.16C22.43 6.08 22.43 5.99 22.41 5.9C22.39 5.81 22.34 5.74 22.28 5.67C22.2 5.62 22.1 5.58 22 5.57C21.9 5.57 21.8 5.58 21.71 5.62C21.47 5.67 17.56 8.25 10 13.36C8.89 14.12 7.88 14.49 6.98 14.47C5.99 14.45 4.08 13.91 2.66 13.44C0.93 12.87 -0.44 12.57 -0.34 11.62C-0.27 11.13 0.42 10.62 1.73 10.09Z" fill="#3575DE" fill-opacity="1.000000" fill-rule="evenodd"/>
</svg>
