<svg width="34.000000" height="22.000000" viewBox="0 0 34 22" fill="none" xmlns="http://www.w3.org/2000/svg" xmlns:xlink="http://www.w3.org/1999/xlink">
	<desc>
			Created with Pixso.
	</desc>
	<defs/>
	<path id="VK" d="M18.09 21.06C6.46 21.06 -0.17 13.08 -0.45 -0.19L5.38 -0.19C5.57 9.55 9.87 13.68 13.27 14.53L13.27 -0.19L18.76 -0.19L18.76 8.21C22.1 7.85 25.65 4.02 26.83 -0.19L32.33 -0.19C31.41 5 27.58 8.83 24.86 10.4C26.99 11.46 28.87 12.95 30.37 14.79C31.88 16.63 32.98 18.76 33.6 21.06L27.56 21.06C26.26 17.02 23.03 13.89 18.76 13.47L18.76 21.06L18.09 21.06Z" fill="#3575DE" fill-opacity="1.000000" fill-rule="nonzero"/>
</svg>
