<svg width="30.000000" height="30.000000" viewBox="0 0 30 30" fill="none" xmlns="http://www.w3.org/2000/svg" xmlns:xlink="http://www.w3.org/1999/xlink">
	<desc>
			Created with Pixso.
	</desc>
	<defs/>
	<path id="WhatsApp" d="M-0.68 29.93L1.43 22.23C-0.2 19.4 -0.85 16.11 -0.42 12.88C0 9.64 1.49 6.63 3.8 4.33C6.11 2.02 9.12 0.54 12.36 0.11C15.6 -0.31 18.89 0.34 21.71 1.98C24.54 3.61 26.75 6.13 28 9.15C29.25 12.17 29.47 15.52 28.62 18.67C27.78 21.83 25.91 24.61 23.32 26.6C20.73 28.59 17.56 29.67 14.29 29.67C11.81 29.67 9.37 29.05 7.2 27.86L-0.68 29.93ZM7.55 25.18L8 25.46C9.91 26.59 12.07 27.18 14.28 27.18C17.02 27.18 19.68 26.27 21.84 24.6C24 22.92 25.55 20.58 26.23 17.93C26.92 15.28 26.7 12.48 25.62 9.96C24.54 7.45 22.65 5.37 20.26 4.04C17.87 2.72 15.1 2.23 12.4 2.65C9.69 3.07 7.2 4.37 5.32 6.36C3.44 8.35 2.27 10.9 2 13.62C1.74 16.35 2.38 19.08 3.83 21.4L4.11 21.87L2.86 26.42L7.55 25.18Z" fill="#3575DE" fill-opacity="1.000000" fill-rule="nonzero"/>
	<path id="WhatsApp" d="M21.76 18.36C21.67 18.2 21.42 18.11 21.05 17.92C20.68 17.74 18.86 16.84 18.52 16.71C18.18 16.59 17.93 16.53 17.68 16.9C17.43 17.27 16.73 18.11 16.51 18.36C16.3 18.6 16.08 18.63 15.71 18.45C14.62 18.01 13.61 17.39 12.74 16.61C11.93 15.86 11.23 14.99 10.68 14.04C10.46 13.67 10.65 13.48 10.84 13.28C11.03 13.08 11.21 12.85 11.4 12.63C11.55 12.44 11.68 12.24 11.77 12.01C11.82 11.91 11.84 11.8 11.83 11.68C11.83 11.57 11.8 11.46 11.74 11.36C11.65 11.18 10.9 9.35 10.59 8.61C10.29 7.87 9.99 7.98 9.76 7.97C9.52 7.96 9.29 7.97 9.05 7.97C8.86 7.97 8.67 8.02 8.5 8.1C8.32 8.18 8.17 8.29 8.04 8.44C7.63 8.83 7.3 9.31 7.07 9.84C6.85 10.36 6.74 10.93 6.75 11.51C6.75 13.33 8.07 15.1 8.26 15.34C8.45 15.59 10.88 19.34 14.59 20.94C15.29 21.24 15.99 21.5 16.71 21.72C17.47 21.95 18.27 22 19.05 21.87C19.76 21.77 21.24 20.97 21.56 20.11C21.88 19.24 21.86 18.51 21.76 18.36Z" fill="#3575DE" fill-opacity="1.000000" fill-rule="evenodd"/>
</svg>
