<svg width="351.000000" height="50.000000" viewBox="0 0 351 50" fill="none" xmlns="http://www.w3.org/2000/svg" xmlns:xlink="http://www.w3.org/1999/xlink">
	<desc>
			Created with Pixso.
	</desc>
	<defs/>
	<path id="Астафьева Евгения Валерьевна" d="M19.24 8.23Q20.12 7.68 21.35 7.68Q21.64 7.68 21.92 7.71Q22.47 7.77 23 7.94Q23.82 8.21 24.58 8.55L25.46 6.45Q24.53 6.02 23.48 5.77Q22.96 5.64 22.43 5.58Q21.9 5.52 21.35 5.52Q19.18 5.52 17.66 6.46Q17.04 6.85 16.54 7.36Q15.83 8.08 15.37 9.05Q14.6 10.69 14.6 12.86Q14.6 15.07 15.29 16.72Q15.74 17.78 16.49 18.53Q16.91 18.96 17.43 19.29Q18.87 20.2 21.08 20.2Q22.23 20.2 23.12 20.03Q24.02 19.87 24.89 19.52L24.89 17.33Q23.96 17.66 23.09 17.85Q23.03 17.86 22.97 17.87Q22.17 18.04 21.33 18.04Q19.8 18.04 18.86 17.29Q18.52 17.03 18.25 16.66Q17.25 15.29 17.25 12.88Q17.25 10.47 18.32 9.08Q18.72 8.56 19.24 8.23ZM59.1 7.28L59.1 5.52L56.74 5.52L56.74 7.28Q54.41 7.33 53.04 8.08Q51.81 8.74 51.2 9.77Q51.13 9.88 51.07 10Q50.91 10.34 50.79 10.68Q50.48 11.59 50.48 12.59Q50.48 13.5 50.78 14.44Q50.8 14.53 50.84 14.62Q51.14 15.45 51.77 16.17Q52.47 16.95 53.69 17.46Q54.9 17.95 56.74 17.99L56.74 20.2L59.1 20.2L59.1 17.99Q60.9 17.95 62.1 17.47Q63.31 16.98 64.03 16.19Q64.75 15.4 65.05 14.47L65.05 14.47Q65.32 13.63 65.35 12.78Q65.36 12.69 65.36 12.59Q65.36 11.47 64.98 10.48Q64.89 10.23 64.76 9.99Q64.7 9.85 64.62 9.73Q64.02 8.71 62.8 8.07Q61.43 7.33 59.1 7.28ZM9.37 16.22L10.67 20L13.39 20L8.15 5.65L5.23 5.65L0 20L2.71 20L3.99 16.22L9.37 16.22ZM45.49 16.22L46.79 20L49.51 20L44.27 5.65L41.35 5.65L36.12 20L38.83 20L40.11 16.22L45.49 16.22ZM112.94 16.22L114.23 20L116.95 20L111.71 5.65L108.79 5.65L103.56 20L106.28 20L107.55 16.22L112.94 16.22ZM241 16.22L242.29 20L245.01 20L239.77 5.65L236.85 5.65L231.62 20L234.34 20L235.61 16.22L241 16.22ZM344.94 16.22L346.23 20L348.95 20L343.71 5.65L340.79 5.65L335.56 20L338.28 20L339.55 16.22L344.94 16.22ZM30.53 20L33.1 20L33.1 7.88L37.19 7.88L37.19 5.71L26.44 5.71L26.44 7.88L30.53 7.88L30.53 20ZM68.18 5.71L68.18 20L72.54 20Q75.44 20 76.79 18.84Q77.23 18.47 77.52 18.01Q78.16 17.03 78.16 15.63Q78.16 14.75 77.84 13.99Q77.73 13.73 77.57 13.48Q77.56 13.46 77.55 13.44Q76.97 12.51 75.74 11.97Q74.49 11.42 72.5 11.42L70.73 11.42L70.73 5.71L68.18 5.71ZM80.98 20L89.1 20L89.1 17.84L83.53 17.84L83.53 13.63L88.73 13.63L88.73 11.49L83.53 11.49L83.53 7.86L89.1 7.86L89.1 5.71L80.98 5.71L80.98 20ZM100.65 6.51Q99.22 5.71 96.44 5.71L92.14 5.71L92.14 20L97.36 20Q99.73 20 101.11 18.92Q101.6 18.53 101.92 18.02Q102.48 17.13 102.48 15.89Q102.48 14.78 102.11 14.09Q101.84 13.59 101.44 13.27Q101.28 13.13 101.1 13.03Q100.46 12.66 99.67 12.51L99.67 12.42Q100.5 12.27 101.06 11.81Q101.28 11.62 101.46 11.38Q101.51 11.3 101.56 11.22Q102.08 10.43 102.08 9.3Q102.08 7.95 101.42 7.15Q101.1 6.77 100.65 6.51ZM124.12 20L132.24 20L132.24 17.84L126.67 17.84L126.67 13.63L131.87 13.63L131.87 11.49L126.67 11.49L126.67 7.86L132.24 7.86L132.24 5.71L124.12 5.71L124.12 20ZM143.79 6.51Q142.36 5.71 139.58 5.71L135.28 5.71L135.28 20L140.5 20Q142.87 20 144.25 18.92Q144.74 18.53 145.06 18.02Q145.62 17.13 145.62 15.89Q145.62 14.78 145.25 14.09Q144.98 13.59 144.58 13.27Q144.42 13.13 144.24 13.03Q143.6 12.66 142.81 12.51L142.81 12.42Q143.64 12.27 144.2 11.81Q144.42 11.62 144.6 11.38Q144.65 11.3 144.7 11.22Q145.22 10.43 145.22 9.3Q145.22 7.95 144.56 7.15Q144.24 6.77 143.79 6.51ZM157.21 7.88L157.21 5.71L148.56 5.71L148.56 20L151.11 20L151.11 7.88L157.21 7.88ZM159.5 20L167.62 20L167.62 17.84L162.05 17.84L162.05 13.63L167.25 13.63L167.25 11.49L162.05 11.49L162.05 7.86L167.62 7.86L167.62 5.71L159.5 5.71L159.5 20ZM179.49 20L182.06 20L182.06 5.71L179.49 5.71L179.49 11.47L173.21 11.47L173.21 5.71L170.66 5.71L170.66 20L173.21 20L173.21 13.66L179.49 13.66L179.49 20ZM188.1 5.71L185.78 5.71L185.78 20L188.79 20L195.89 8.7L195.98 8.7Q195.96 8.94 195.91 9.64Q195.87 10.34 195.83 11.21Q195.8 12.08 195.8 12.79L195.8 20L198.11 20L198.11 5.71L195.12 5.71L188.04 16.91L187.95 16.91Q188 16.67 188.03 15.99Q188.06 15.29 188.08 14.46Q188.1 13.63 188.1 12.97L188.1 5.71ZM202.93 20L206.42 14.36L208.66 14.36L208.66 20L211.22 20L211.22 5.71L206.82 5.71Q204.19 5.71 202.81 6.75Q202.34 7.11 202.03 7.57Q201.43 8.46 201.43 9.76Q201.43 10.98 201.83 11.77Q202.22 12.55 202.84 13.03Q203.46 13.5 204.1 13.74L200.05 20L202.93 20ZM228.71 6.51Q227.28 5.71 224.5 5.71L220.2 5.71L220.2 20L225.42 20Q227.79 20 229.17 18.92Q229.66 18.53 229.98 18.02Q230.54 17.13 230.54 15.89Q230.54 14.78 230.17 14.09Q229.9 13.59 229.5 13.27Q229.34 13.13 229.16 13.03Q228.52 12.66 227.73 12.51L227.73 12.42Q228.56 12.27 229.12 11.81Q229.34 11.62 229.52 11.38Q229.57 11.3 229.62 11.22Q230.14 10.43 230.14 9.3Q230.14 7.95 229.48 7.15Q229.16 6.77 228.71 6.51ZM255.24 20L257.79 20L257.79 5.71L249.23 5.71Q248.98 7.84 248.7 9.72Q248.43 11.6 248.21 13Q247.99 14.39 247.86 15.07Q247.57 16.53 247.24 17.3Q247.03 17.8 246.66 17.98Q246.46 18.08 246.22 18.08Q245.91 18.08 245.66 18.02Q245.4 17.95 245.13 17.86L245.13 19.98Q245.78 20.2 246.53 20.2Q247.66 20.2 248.37 19.74Q248.39 19.72 248.41 19.71Q249.09 19.25 249.48 18.38Q249.89 17.48 250.16 16.18Q250.31 15.41 250.47 14.4Q250.64 13.39 250.79 12.27Q250.95 11.13 251.1 10Q251.24 8.88 251.35 7.88L255.24 7.88L255.24 20ZM261.51 20L269.64 20L269.64 17.84L264.07 17.84L264.07 13.63L269.27 13.63L269.27 11.49L264.07 11.49L264.07 7.86L269.64 7.86L269.64 5.71L261.51 5.71L261.51 20ZM280.99 6.87Q279.72 5.71 276.93 5.71L272.68 5.71L272.68 20L275.23 20L275.23 14.74L276.66 14.74Q278.75 14.74 279.99 14.09Q281.07 13.51 281.6 12.61Q281.67 12.49 281.73 12.37Q281.94 11.95 282.06 11.5Q282.26 10.81 282.26 10.07Q282.26 8.55 281.54 7.51Q281.3 7.17 280.99 6.87ZM285.06 5.71L285.06 20L289.42 20Q292.32 20 293.67 18.84Q294.11 18.47 294.4 18.01Q295.04 17.03 295.04 15.63Q295.04 14.75 294.72 13.99Q294.61 13.73 294.46 13.48Q294.45 13.46 294.44 13.44Q293.85 12.51 292.62 11.97Q291.37 11.42 289.38 11.42L287.61 11.42L287.61 5.71L285.06 5.71ZM297.85 20L305.98 20L305.98 17.84L300.41 17.84L300.41 13.63L305.61 13.63L305.61 11.49L300.41 11.49L300.41 7.86L305.98 7.86L305.98 5.71L297.85 5.71L297.85 20ZM317.53 6.51Q316.1 5.71 313.32 5.71L309.01 5.71L309.01 20L314.24 20Q316.61 20 317.99 18.92Q318.48 18.53 318.8 18.02Q319.36 17.13 319.36 15.89Q319.36 14.78 318.99 14.09Q318.72 13.59 318.32 13.27Q318.16 13.13 317.98 13.03Q317.34 12.66 316.55 12.51L316.55 12.42Q317.38 12.27 317.94 11.81Q318.16 11.62 318.34 11.38Q318.39 11.3 318.44 11.22Q318.96 10.43 318.96 9.3Q318.96 7.95 318.29 7.15Q317.98 6.77 317.53 6.51ZM331.13 20L333.7 20L333.7 5.71L331.13 5.71L331.13 11.47L324.85 11.47L324.85 5.71L322.29 5.71L322.29 20L324.85 20L324.85 13.66L331.13 13.66L331.13 20ZM7.24 9.58Q7.4 10.05 7.48 10.34L8.72 14.01L4.7 14.01L5.96 10.34Q6.02 10.09 6.15 9.63Q6.29 9.17 6.45 8.66Q6.6 8.13 6.69 7.73Q6.78 8.08 6.92 8.59Q7.08 9.1 7.24 9.58ZM43.36 9.58Q43.52 10.05 43.6 10.34L44.84 14.01L40.82 14.01L42.08 10.34Q42.14 10.09 42.27 9.63Q42.41 9.17 42.57 8.66Q42.72 8.13 42.81 7.73Q42.9 8.08 43.04 8.59Q43.2 9.1 43.36 9.58ZM110.8 9.58Q110.96 10.05 111.04 10.34L112.28 14.01L108.26 14.01L109.52 10.34Q109.58 10.09 109.71 9.63Q109.85 9.17 110.01 8.66Q110.16 8.13 110.25 7.73Q110.34 8.08 110.48 8.59Q110.64 9.1 110.8 9.58ZM238.86 9.58Q239.02 10.05 239.1 10.34L240.34 14.01L236.32 14.01L237.58 10.34Q237.64 10.09 237.77 9.63Q237.91 9.17 238.07 8.66Q238.22 8.13 238.31 7.73Q238.4 8.08 238.54 8.59Q238.7 9.1 238.86 9.58ZM342.8 9.58Q342.96 10.05 343.04 10.34L344.28 14.01L340.26 14.01L341.52 10.34Q341.58 10.09 341.71 9.63Q341.85 9.17 342.01 8.66Q342.16 8.13 342.25 7.73Q342.34 8.08 342.48 8.59Q342.64 9.1 342.8 9.58ZM98.86 11.05Q98.29 11.53 96.77 11.53L94.69 11.53L94.69 7.84L96.57 7.84Q98.05 7.84 98.74 8.26Q98.97 8.4 99.13 8.59Q99.44 8.99 99.44 9.63Q99.44 10.39 99.06 10.85Q98.97 10.96 98.86 11.05ZM142 11.05Q141.43 11.53 139.91 11.53L137.83 11.53L137.83 7.84L139.71 7.84Q141.19 7.84 141.88 8.26Q142.11 8.4 142.27 8.59Q142.58 8.99 142.58 9.63Q142.58 10.39 142.2 10.85Q142.11 10.96 142 11.05ZM204.77 8.33Q205.52 7.84 206.89 7.84L208.66 7.84L208.66 12.24L206.98 12.24Q205.47 12.24 204.76 11.63Q204.53 11.44 204.38 11.2Q204.04 10.68 204.04 9.94Q204.04 9.09 204.46 8.6Q204.59 8.45 204.77 8.33ZM226.92 11.05Q226.35 11.53 224.83 11.53L222.75 11.53L222.75 7.84L224.63 7.84Q226.11 7.84 226.8 8.26Q227.03 8.4 227.19 8.59Q227.5 8.99 227.5 9.63Q227.5 10.39 227.12 10.85Q227.03 10.96 226.92 11.05ZM275.23 7.84L276.78 7.84Q278.26 7.84 278.96 8.42Q279.07 8.51 279.16 8.62Q279.65 9.19 279.65 10.18Q279.65 11.16 279.17 11.72Q279.01 11.91 278.8 12.05Q277.95 12.62 276.4 12.62L275.23 12.62L275.23 7.84ZM315.74 11.05Q315.17 11.53 313.65 11.53L311.57 11.53L311.57 7.84L313.45 7.84Q314.93 7.84 315.62 8.26Q315.85 8.4 316.01 8.59Q316.32 8.99 316.32 9.63Q316.32 10.39 315.94 10.85Q315.85 10.96 315.74 11.05ZM54.49 9.79Q55.32 9.37 56.74 9.32L56.74 15.98Q54.75 15.89 53.84 14.99Q53.62 14.77 53.46 14.51Q52.93 13.72 52.93 12.57Q52.93 11.66 53.29 10.94Q53.35 10.82 53.42 10.72Q53.79 10.15 54.49 9.79ZM62.01 14.99Q61.12 15.89 59.1 15.98L59.1 9.32Q61.23 9.39 62.06 10.29Q62.27 10.51 62.43 10.77Q62.89 11.53 62.89 12.57Q62.89 13.75 62.35 14.56Q62.2 14.79 62.01 14.99ZM74.72 17.36Q73.89 17.88 72.39 17.88L70.73 17.88L70.73 13.54L72.14 13.54Q73.76 13.54 74.65 13.97Q74.95 14.12 75.15 14.35Q75.55 14.81 75.55 15.63Q75.55 16.49 75.14 17Q74.96 17.21 74.72 17.36ZM291.6 17.36Q290.77 17.88 289.27 17.88L287.61 17.88L287.61 13.54L289.01 13.54Q290.64 13.54 291.54 13.97Q291.83 14.12 292.03 14.35Q292.43 14.81 292.43 15.63Q292.43 16.49 292.02 17Q291.85 17.21 291.6 17.36ZM94.69 17.86L94.69 13.59L96.9 13.59Q98.54 13.59 99.17 14.16Q99.41 14.38 99.56 14.66Q99.8 15.09 99.8 15.65Q99.8 16.41 99.45 16.93Q99.34 17.11 99.19 17.26Q98.58 17.86 97.01 17.86L94.69 17.86ZM137.83 17.86L137.83 13.59L140.04 13.59Q141.68 13.59 142.31 14.16Q142.55 14.38 142.7 14.66Q142.94 15.09 142.94 15.65Q142.94 16.41 142.59 16.93Q142.48 17.11 142.33 17.26Q141.72 17.86 140.15 17.86L137.83 17.86ZM222.75 17.86L222.75 13.59L224.96 13.59Q226.6 13.59 227.23 14.16Q227.47 14.38 227.62 14.66Q227.86 15.09 227.86 15.65Q227.86 16.41 227.51 16.93Q227.4 17.11 227.25 17.26Q226.64 17.86 225.07 17.86L222.75 17.86ZM311.57 17.86L311.57 13.59L313.78 13.59Q315.42 13.59 316.05 14.16Q316.29 14.38 316.44 14.66Q316.68 15.09 316.68 15.65Q316.68 16.41 316.33 16.93Q316.22 17.11 316.07 17.26Q315.46 17.86 313.89 17.86L311.57 17.86Z" fill="#242424" fill-opacity="1.000000" fill-rule="evenodd"/>
	<path id="Врач-хирург, флеболог в Санкт-Петербурге" d="M142.78 35.4Q141.86 36.98 141.86 39.83Q141.86 42.42 142.94 43.79Q143.42 44.39 144.05 44.73Q144.84 45.16 145.86 45.16Q147.04 45.16 147.95 44.67Q148.27 44.51 148.54 44.28Q149.04 43.85 149.37 43.23Q149.87 42.26 149.87 40.8Q149.87 39.04 149.01 38Q148.79 37.74 148.53 37.55Q147.74 36.96 146.51 36.96Q145.81 36.96 145.27 37.18Q144.73 37.39 144.36 37.71Q143.98 38.03 143.76 38.34L143.66 38.34Q143.71 37.17 144 36.46Q144.29 35.75 144.8 35.37Q145.31 35 146.05 34.85Q146.53 34.76 147.2 34.64Q147.87 34.53 148.57 34.43Q149.27 34.32 149.81 34.24L149.57 32.76Q148.67 32.9 147.71 33.05Q146.75 33.2 145.78 33.39Q144.33 33.69 143.44 34.55Q143.06 34.92 142.78 35.4ZM308.33 35.4Q307.41 36.98 307.41 39.83Q307.41 42.42 308.49 43.79Q308.98 44.39 309.6 44.73Q310.39 45.16 311.41 45.16Q312.59 45.16 313.5 44.67Q313.82 44.51 314.09 44.28Q314.59 43.85 314.92 43.23Q315.42 42.26 315.42 40.8Q315.42 39.04 314.56 38Q314.34 37.74 314.08 37.55Q313.29 36.96 312.06 36.96Q311.36 36.96 310.82 37.18Q310.28 37.39 309.91 37.71Q309.53 38.03 309.31 38.34L309.21 38.34Q309.26 37.17 309.55 36.46Q309.84 35.75 310.35 35.37Q310.86 35 311.6 34.85Q312.08 34.76 312.75 34.64Q313.42 34.53 314.12 34.43Q314.82 34.32 315.36 34.24L315.12 32.76Q314.22 32.9 313.26 33.05Q312.3 33.2 311.33 33.39Q309.88 33.69 308.99 34.55Q308.61 34.92 308.33 35.4ZM120.06 37.41Q118.92 36.44 117.09 36.28L117.09 32.83L115.5 32.83L115.5 36.28Q113.42 36.42 112.29 37.53Q112.25 37.56 112.22 37.59Q111.98 37.84 111.79 38.12Q111.09 39.17 111.09 40.69Q111.09 41.96 111.62 42.91Q111.81 43.24 112.05 43.52Q112.5 44.06 113.14 44.43Q114.13 45 115.47 45.11L115.47 48.83L117.09 48.83L117.09 45.11Q119.1 44.94 120.23 43.85Q120.28 43.81 120.32 43.76Q120.58 43.49 120.79 43.18Q121.46 42.15 121.46 40.69Q121.46 39.27 120.81 38.26Q120.58 37.91 120.28 37.61Q120.17 37.51 120.06 37.41ZM209.32 35.41Q210.12 34.9 211.24 34.9Q211.97 34.9 212.61 35.1Q213.26 35.3 213.82 35.55L214.46 34.12Q213.77 33.78 212.95 33.6Q212.13 33.41 211.26 33.41Q209.5 33.41 208.28 34.16Q207.8 34.45 207.41 34.84Q206.82 35.43 206.43 36.23Q205.81 37.55 205.81 39.28Q205.81 41.06 206.38 42.38Q206.77 43.26 207.41 43.88Q207.72 44.19 208.11 44.43Q209.26 45.16 211.02 45.16Q211.97 45.16 212.66 45.03Q213.36 44.92 214.03 44.66L214.03 43.17Q213.33 43.39 212.65 43.53Q211.97 43.67 211.23 43.67Q209.84 43.67 208.99 42.99Q208.72 42.78 208.51 42.5Q207.61 41.33 207.61 39.3Q207.61 37.25 208.57 36.08Q208.9 35.67 209.32 35.41ZM8.16 34.21Q7.03 33.57 4.86 33.57L1.51 33.57L1.51 45L5.61 45Q7.47 45 8.55 44.14Q8.94 43.84 9.19 43.45Q9.64 42.74 9.64 41.73Q9.64 40.83 9.32 40.28Q9.15 39.98 8.9 39.75Q8.7 39.56 8.45 39.43Q7.9 39.12 7.23 39.01L7.23 38.93Q8.04 38.79 8.55 38.31Q8.66 38.21 8.75 38.09Q8.84 37.99 8.9 37.88Q9.29 37.27 9.29 36.42Q9.29 35.35 8.77 34.71Q8.52 34.41 8.16 34.21ZM260.27 33.57L260.27 45L262 45L262 35.06L267.26 35.06L267.26 45L268.97 45L268.97 33.57L260.27 33.57ZM7 37.91Q6.49 38.34 5.15 38.34L3.24 38.34L3.24 35.03L4.96 35.03Q6.28 35.03 6.89 35.41Q7.09 35.53 7.22 35.7Q7.5 36.06 7.5 36.63Q7.5 37.33 7.16 37.74Q7.08 37.83 7 37.91ZM17.71 36.58Q17.01 36.21 16.12 36.21Q15.12 36.21 14.5 36.6Q13.88 36.98 13.51 37.52L13.44 37.52L13.19 36.37L11.82 36.37L11.82 48.83L13.51 48.83L13.51 45.32Q13.51 45.01 13.48 44.62Q13.45 44.23 13.4 43.94L13.51 43.94Q13.88 44.44 14.5 44.8Q15.12 45.16 16.11 45.16Q16.96 45.16 17.64 44.81Q18.19 44.52 18.62 44.01Q19.58 42.87 19.58 40.67Q19.58 38.45 18.63 37.33Q18.22 36.85 17.71 36.58ZM27.5 36.92Q26.7 36.21 25.08 36.21Q24.22 36.21 23.43 36.43Q22.63 36.64 22.03 36.96L22.57 38.19Q23.13 37.92 23.74 37.73Q23.88 37.69 24.03 37.65Q24.5 37.54 25 37.54Q25.77 37.54 26.2 37.92Q26.21 37.93 26.22 37.93Q26.65 38.32 26.65 39.27L26.65 39.75L25.18 39.8Q23.11 39.86 22.12 40.55Q21.72 40.82 21.48 41.2Q21.13 41.76 21.13 42.55Q21.13 43.72 21.71 44.35Q21.8 44.44 21.9 44.52Q22.03 44.63 22.17 44.72Q22.86 45.16 23.84 45.16Q24.92 45.16 25.54 44.83Q26.15 44.5 26.72 43.8L26.78 43.8L27.11 45L28.31 45L28.31 39.16Q28.31 37.73 27.6 37.01Q27.55 36.97 27.5 36.92ZM73.58 36.58Q72.89 36.21 72 36.21Q70.99 36.21 70.37 36.6Q69.75 36.98 69.39 37.52L69.31 37.52L69.07 36.37L67.69 36.37L67.69 48.83L69.39 48.83L69.39 45.32Q69.39 45.01 69.36 44.62Q69.33 44.23 69.27 43.94L69.39 43.94Q69.75 44.44 70.37 44.8Q70.99 45.16 71.98 45.16Q72.84 45.16 73.51 44.81Q74.06 44.52 74.49 44.01Q75.45 42.87 75.45 40.67Q75.45 38.45 74.5 37.33Q74.1 36.85 73.58 36.58ZM91.77 36.58Q91.08 36.21 90.19 36.21Q89.18 36.21 88.56 36.6Q87.95 36.98 87.58 37.52L87.5 37.52L87.26 36.37L85.88 36.37L85.88 48.83L87.58 48.83L87.58 45.32Q87.58 45.01 87.55 44.62Q87.52 44.23 87.47 43.94L87.58 43.94Q87.95 44.44 88.56 44.8Q89.18 45.16 90.17 45.16Q91.03 45.16 91.71 44.81Q92.25 44.52 92.69 44.01Q93.65 42.87 93.65 40.67Q93.65 38.45 92.69 37.33Q92.29 36.85 91.77 36.58ZM138.72 36.8Q137.85 36.21 136.57 36.21Q135.5 36.21 134.68 36.66Q134.61 36.7 134.53 36.75Q134.35 36.87 134.17 37Q133.56 37.5 133.18 38.29Q132.69 39.3 132.69 40.76Q132.69 42.19 133.22 43.18Q133.56 43.79 134.05 44.21Q134.35 44.47 134.71 44.66Q135.66 45.16 136.93 45.16Q137.84 45.16 138.5 45.01Q139.15 44.87 139.81 44.58L139.81 43.17Q139.12 43.48 138.47 43.63Q137.82 43.78 136.99 43.78Q136.01 43.78 135.38 43.31Q135.25 43.2 135.13 43.08Q134.47 42.37 134.43 41.04L140.22 41.04L140.22 40.12Q140.22 38.49 139.44 37.48Q139.35 37.37 139.25 37.26Q139 37 138.72 36.8ZM158.61 43.9Q159.63 42.74 159.63 40.67Q159.63 39.23 159.11 38.25Q158.74 37.53 158.16 37.06Q157.94 36.88 157.68 36.73Q157.63 36.7 157.58 36.68Q156.71 36.21 155.6 36.21Q154.17 36.21 153.19 36.88Q152.88 37.09 152.62 37.37Q152.6 37.39 152.58 37.41Q151.53 38.57 151.53 40.67Q151.53 42.1 152.06 43.1Q152.44 43.84 153.03 44.32Q153.24 44.49 153.48 44.63Q153.58 44.69 153.69 44.75Q154.52 45.16 155.55 45.16Q156.92 45.16 157.89 44.53Q158.23 44.3 158.53 43.99Q158.57 43.94 158.61 43.9ZM177.92 43.9Q178.95 42.74 178.95 40.67Q178.95 39.23 178.42 38.25Q178.05 37.53 177.48 37.06Q177.25 36.88 177 36.73Q176.94 36.7 176.89 36.68Q176.03 36.21 174.91 36.21Q173.48 36.21 172.51 36.88Q172.2 37.09 171.93 37.37Q171.91 37.39 171.9 37.41Q170.85 38.57 170.85 40.67Q170.85 42.1 171.37 43.1Q171.75 43.84 172.35 44.32Q172.55 44.49 172.79 44.63Q172.9 44.69 173.01 44.75Q173.83 45.16 174.86 45.16Q176.24 45.16 177.2 44.53Q177.55 44.3 177.84 43.99Q177.88 43.94 177.92 43.9ZM222.07 36.92Q221.26 36.21 219.64 36.21Q218.78 36.21 217.99 36.43Q217.2 36.64 216.59 36.96L217.13 38.19Q217.69 37.92 218.3 37.73Q218.45 37.69 218.59 37.65Q219.07 37.54 219.57 37.54Q220.34 37.54 220.76 37.92Q220.77 37.93 220.78 37.93Q221.21 38.32 221.21 39.27L221.21 39.75L219.74 39.8Q217.68 39.86 216.68 40.55Q216.28 40.82 216.04 41.2Q215.69 41.76 215.69 42.55Q215.69 43.72 216.27 44.35Q216.36 44.44 216.46 44.52Q216.59 44.63 216.73 44.72Q217.43 45.16 218.4 45.16Q219.48 45.16 220.1 44.83Q220.72 44.5 221.28 43.8L221.34 43.8L221.68 45L222.88 45L222.88 39.16Q222.88 37.73 222.16 37.01Q222.12 36.97 222.07 36.92ZM277.37 36.8Q276.5 36.21 275.23 36.21Q274.16 36.21 273.34 36.66Q273.26 36.7 273.19 36.75Q273 36.87 272.83 37Q272.21 37.5 271.83 38.29Q271.34 39.3 271.34 40.76Q271.34 42.19 271.88 43.18Q272.21 43.79 272.7 44.21Q273.01 44.47 273.37 44.66Q274.32 45.16 275.58 45.16Q276.49 45.16 277.15 45.01Q277.81 44.87 278.46 44.58L278.46 43.17Q277.78 43.48 277.13 43.63Q276.48 43.78 275.65 43.78Q274.66 43.78 274.04 43.31Q273.9 43.2 273.78 43.08Q273.12 42.37 273.08 41.04L278.88 41.04L278.88 40.12Q278.88 38.49 278.09 37.48Q278 37.37 277.9 37.26Q277.66 37 277.37 36.8ZM294.35 36.8Q293.48 36.21 292.2 36.21Q291.14 36.21 290.32 36.66Q290.24 36.7 290.17 36.75Q289.98 36.87 289.8 37Q289.19 37.5 288.81 38.29Q288.32 39.3 288.32 40.76Q288.32 42.19 288.85 43.18Q289.19 43.79 289.68 44.21Q289.98 44.47 290.34 44.66Q291.29 45.16 292.56 45.16Q293.47 45.16 294.13 45.01Q294.78 44.87 295.44 44.58L295.44 43.17Q294.75 43.48 294.1 43.63Q293.45 43.78 292.62 43.78Q291.64 43.78 291.01 43.31Q290.88 43.2 290.76 43.08Q290.1 42.37 290.06 41.04L295.85 41.04L295.85 40.12Q295.85 38.49 295.07 37.48Q294.98 37.37 294.88 37.26Q294.63 37 294.35 36.8ZM303.85 36.58Q303.16 36.21 302.27 36.21Q301.26 36.21 300.65 36.6Q300.03 36.98 299.66 37.52L299.58 37.52L299.34 36.37L297.97 36.37L297.97 48.83L299.66 48.83L299.66 45.32Q299.66 45.01 299.63 44.62Q299.6 44.23 299.55 43.94L299.66 43.94Q300.03 44.44 300.65 44.8Q301.26 45.16 302.26 45.16Q303.11 45.16 303.79 44.81Q304.34 44.52 304.77 44.01Q305.73 42.87 305.73 40.67Q305.73 38.45 304.77 37.33Q304.37 36.85 303.85 36.58ZM331.9 36.58Q331.21 36.21 330.32 36.21Q329.31 36.21 328.69 36.6Q328.08 36.98 327.71 37.52L327.63 37.52L327.39 36.37L326.01 36.37L326.01 48.83L327.71 48.83L327.71 45.32Q327.71 45.01 327.68 44.62Q327.65 44.23 327.6 43.94L327.71 43.94Q328.08 44.44 328.69 44.8Q329.31 45.16 330.3 45.16Q331.16 45.16 331.84 44.81Q332.38 44.52 332.82 44.01Q333.78 42.87 333.78 40.67Q333.78 38.45 332.82 37.33Q332.42 36.85 331.9 36.58ZM348.44 36.8Q347.58 36.21 346.3 36.21Q345.23 36.21 344.41 36.66Q344.34 36.7 344.26 36.75Q344.07 36.87 343.9 37Q343.28 37.5 342.9 38.29Q342.41 39.3 342.41 40.76Q342.41 42.19 342.95 43.18Q343.28 43.79 343.78 44.21Q344.08 44.47 344.44 44.66Q345.39 45.16 346.65 45.16Q347.57 45.16 348.22 45.01Q348.88 44.87 349.54 44.58L349.54 43.17Q348.85 43.48 348.2 43.63Q347.55 43.78 346.72 43.78Q345.73 43.78 345.11 43.31Q344.97 43.2 344.86 43.08Q344.19 42.37 344.16 41.04L349.95 41.04L349.95 40.12Q349.95 38.49 349.16 37.48Q349.07 37.37 348.97 37.26Q348.73 37 348.44 36.8ZM32.72 40.49Q32.41 40.15 32.41 39.52L32.41 36.37L30.72 36.37L30.72 39.6Q30.72 40.56 31.17 41.19Q31.3 41.37 31.47 41.52Q31.5 41.56 31.54 41.59Q32.29 42.21 33.55 42.21Q34.51 42.21 35.21 41.96Q35.92 41.7 36.59 41.27L36.59 45L38.28 45L38.28 36.37L36.59 36.37L36.59 40.08Q35.93 40.45 35.29 40.67Q34.65 40.88 33.88 40.88Q33.09 40.88 32.72 40.49ZM47.39 36.37L50.32 40.6L47.24 45L49.16 45L51.37 41.7L53.56 45L55.48 45L52.41 40.6L55.34 36.37L53.42 36.37L51.37 39.48L49.32 36.37L47.39 36.37ZM58.63 41.76Q58.65 41.33 58.65 41.07L58.65 36.37L57.04 36.37L57.04 45L59.11 45L63.52 38.13Q63.5 38.35 63.47 38.78Q63.45 39.2 63.43 39.65Q63.42 40.1 63.42 40.4L63.42 45L65.02 45L65.02 36.37L62.95 36.37L58.52 43.25Q58.56 43.04 58.58 42.62Q58.6 42.19 58.63 41.76ZM77.96 36.37L76.14 36.37L79.6 45L79.25 45.92Q78.99 46.61 78.54 47.03Q78.45 47.12 78.36 47.18Q77.95 47.46 77.35 47.46Q77.08 47.46 76.83 47.42Q76.57 47.39 76.41 47.36L76.41 48.71Q76.62 48.76 76.91 48.8Q77.19 48.83 77.6 48.83Q78.59 48.83 79.29 48.38Q79.46 48.26 79.62 48.12Q80.4 47.41 80.86 46.16L84.56 36.37L82.73 36.37L81.03 41.25Q80.83 41.83 80.66 42.39Q80.49 42.95 80.41 43.36L80.35 43.36Q80.27 42.87 80.12 42.35Q79.96 41.83 79.76 41.27L77.96 36.37ZM101.28 37.73L101.28 36.37L95.8 36.37L95.8 45L97.5 45L97.5 37.73L101.28 37.73ZM128.82 45L130.53 45L130.53 36.37L124.93 36.37Q124.75 39.04 124.47 40.67Q124.19 42.29 123.8 43.02Q123.45 43.67 123.01 43.74Q122.96 43.75 122.9 43.75Q122.59 43.75 122.37 43.67L122.37 44.96Q122.7 45.12 123.28 45.12Q123.76 45.12 124.16 44.94Q124.55 44.75 124.85 44.38Q125.46 43.64 125.82 42.01Q126.17 40.39 126.39 37.73L128.82 37.73L128.82 45ZM166.98 45L168.69 45L168.69 36.37L163.09 36.37Q162.91 39.04 162.63 40.67Q162.35 42.29 161.96 43.02Q161.61 43.67 161.17 43.74Q161.12 43.75 161.06 43.75Q160.75 43.75 160.53 43.67L160.53 44.96Q160.86 45.12 161.44 45.12Q161.92 45.12 162.32 44.94Q162.71 44.75 163.01 44.38Q163.62 43.64 163.98 42.01Q164.33 40.39 164.55 37.73L166.98 37.73L166.98 45ZM186.56 37.73L186.56 36.37L181.09 36.37L181.09 45L182.78 45L182.78 37.73L186.56 37.73ZM199.33 39.58Q199.61 39.17 199.61 38.56Q199.61 37.84 199.27 37.38Q199.22 37.32 199.17 37.27Q198.74 36.79 197.98 36.58Q197.23 36.37 196.29 36.37L192.46 36.37L192.46 45L196.29 45Q198.2 45 199.04 44.28Q199.48 43.91 199.69 43.44Q199.89 42.99 199.89 42.45Q199.89 41.77 199.56 41.33Q199.45 41.19 199.3 41.07Q199.23 41.01 199.15 40.95Q198.61 40.58 197.89 40.48L197.89 40.42Q198.66 40.28 199.13 39.83Q199.13 39.82 199.14 39.81Q199.25 39.71 199.33 39.58ZM227.18 39.87L227.18 36.37L225.49 36.37L225.49 45L227.18 45L227.18 41.23L231.44 41.23L231.44 45L233.13 45L233.13 36.37L231.44 36.37L231.44 39.87L227.18 39.87ZM242.91 36.37L241.05 36.37L237.48 40.56L237.48 36.37L235.79 36.37L235.79 45L237.48 45L237.48 40.63L241.26 45L243.21 45L239.31 40.51L242.91 36.37ZM248.17 37.73L250.99 37.73L250.99 36.37L243.69 36.37L243.69 37.73L246.49 37.73L246.49 45L248.17 45L248.17 37.73ZM284.48 37.73L287.29 37.73L287.29 36.37L280 36.37L280 37.73L282.8 37.73L282.8 45L284.48 45L284.48 37.73ZM318.09 36.37L316.27 36.37L319.73 45L319.38 45.92Q319.12 46.61 318.67 47.03Q318.58 47.12 318.49 47.18Q318.08 47.46 317.48 47.46Q317.22 47.46 316.96 47.42Q316.7 47.39 316.54 47.36L316.54 48.71Q316.75 48.76 317.04 48.8Q317.32 48.83 317.73 48.83Q318.72 48.83 319.42 48.38Q319.59 48.26 319.75 48.12Q320.53 47.41 320.99 46.16L324.69 36.37L322.86 36.37L321.16 41.25Q320.96 41.83 320.79 42.39Q320.62 42.95 320.54 43.36L320.48 43.36Q320.4 42.87 320.25 42.35Q320.09 41.83 319.89 41.27L318.09 36.37ZM341.41 37.73L341.41 36.37L335.93 36.37L335.93 45L337.63 45L337.63 37.73L341.41 37.73ZM135.51 37.79Q135.96 37.52 136.57 37.52Q137.34 37.52 137.79 37.9Q137.93 38.01 138.04 38.16Q138.51 38.79 138.53 39.8L134.47 39.8Q134.56 38.71 135.11 38.12Q135.29 37.92 135.51 37.79ZM274.16 37.79Q274.61 37.52 275.23 37.52Q275.99 37.52 276.45 37.9Q276.58 38.01 276.69 38.16Q277.17 38.79 277.18 39.8L273.12 39.8Q273.21 38.71 273.76 38.12Q273.94 37.92 274.16 37.79ZM291.14 37.79Q291.59 37.52 292.2 37.52Q292.97 37.52 293.42 37.9Q293.56 38.01 293.67 38.16Q294.14 38.79 294.16 39.8L290.1 39.8Q290.19 38.71 290.74 38.12Q290.92 37.92 291.14 37.79ZM345.23 37.79Q345.69 37.52 346.3 37.52Q347.06 37.52 347.52 37.9Q347.66 38.01 347.77 38.16Q348.24 38.79 348.25 39.8L344.19 39.8Q344.29 38.71 344.84 38.12Q345.02 37.92 345.23 37.79ZM14.18 38.12Q14.69 37.6 15.72 37.6Q16.41 37.6 16.86 37.93Q17.13 38.12 17.32 38.42Q17.83 39.23 17.83 40.64Q17.83 42.03 17.32 42.9Q17.09 43.29 16.75 43.5Q16.34 43.76 15.76 43.76Q14.74 43.76 14.23 43.26Q14.09 43.12 13.99 42.96Q13.51 42.15 13.51 40.66L13.51 40.4Q13.53 39 14.03 38.3Q14.09 38.2 14.18 38.12ZM70.05 38.12Q70.56 37.6 71.59 37.6Q72.28 37.6 72.74 37.93Q73.01 38.12 73.2 38.42Q73.71 39.23 73.71 40.64Q73.71 42.03 73.2 42.9Q72.97 43.29 72.63 43.5Q72.21 43.76 71.63 43.76Q70.61 43.76 70.1 43.26Q69.97 43.12 69.87 42.96Q69.39 42.15 69.39 40.66L69.39 40.4Q69.4 39 69.9 38.3Q69.97 38.2 70.05 38.12ZM88.24 38.12Q88.75 37.6 89.79 37.6Q90.47 37.6 90.93 37.93Q91.2 38.12 91.39 38.42Q91.9 39.23 91.9 40.64Q91.9 42.03 91.39 42.9Q91.16 43.29 90.82 43.5Q90.4 43.76 89.82 43.76Q88.81 43.76 88.29 43.26Q88.16 43.12 88.06 42.96Q87.58 42.15 87.58 40.66L87.58 40.4Q87.6 39 88.09 38.3Q88.16 38.2 88.24 38.12ZM300.32 38.12Q300.83 37.6 301.87 37.6Q302.55 37.6 303.01 37.93Q303.28 38.12 303.47 38.42Q303.98 39.23 303.98 40.64Q303.98 42.03 303.47 42.9Q303.24 43.29 302.9 43.5Q302.48 43.76 301.9 43.76Q300.89 43.76 300.38 43.26Q300.24 43.12 300.14 42.96Q299.66 42.15 299.66 40.66L299.66 40.4Q299.68 39 300.17 38.3Q300.24 38.2 300.32 38.12ZM328.37 38.12Q328.88 37.6 329.92 37.6Q330.6 37.6 331.06 37.93Q331.33 38.12 331.52 38.42Q332.03 39.23 332.03 40.64Q332.03 42.03 331.52 42.9Q331.29 43.29 330.95 43.5Q330.53 43.76 329.95 43.76Q328.94 43.76 328.42 43.26Q328.29 43.12 328.19 42.96Q327.71 42.15 327.71 40.66L327.71 40.4Q327.73 39 328.22 38.3Q328.29 38.2 328.37 38.12ZM113.6 38.45Q114.25 37.75 115.5 37.62L115.5 43.76Q114.27 43.63 113.61 42.95Q113.56 42.89 113.5 42.82Q113.49 42.81 113.49 42.8Q112.85 42 112.85 40.69Q112.85 39.35 113.5 38.56Q113.55 38.5 113.6 38.45ZM153.83 42.95Q153.28 42.13 153.28 40.67Q153.28 39.2 153.82 38.41Q153.96 38.21 154.15 38.06Q154.68 37.62 155.57 37.62Q156.45 37.62 156.99 38.05Q157.18 38.21 157.32 38.41Q157.89 39.2 157.89 40.67Q157.89 42.13 157.33 42.95Q157.17 43.18 156.97 43.35Q156.44 43.76 155.58 43.76Q154.73 43.76 154.2 43.35Q153.99 43.18 153.83 42.95ZM173.14 42.95Q172.59 42.13 172.59 40.67Q172.59 39.2 173.13 38.41Q173.27 38.21 173.46 38.06Q173.99 37.62 174.88 37.62Q175.77 37.62 176.3 38.05Q176.49 38.21 176.64 38.41Q177.2 39.2 177.2 40.67Q177.2 42.13 176.64 42.95Q176.49 43.18 176.28 43.35Q175.75 43.76 174.89 43.76Q174.04 43.76 173.51 43.35Q173.3 43.18 173.14 42.95ZM118.97 42.92Q118.32 43.62 117.09 43.76L117.09 37.64Q118.3 37.78 118.96 38.47Q119.01 38.52 119.06 38.58L119.06 38.59Q119.71 39.37 119.71 40.69Q119.71 42.02 119.06 42.81Q119.02 42.87 118.97 42.92ZM197.73 38.18Q197.89 38.41 197.89 38.76Q197.89 39.02 197.77 39.22Q197.42 39.86 195.94 39.86L194.16 39.86L194.16 37.68L196.19 37.68Q197.07 37.68 197.48 37.95Q197.63 38.05 197.73 38.18ZM147.06 43.5Q146.6 43.76 145.98 43.76Q145.27 43.76 144.8 43.44Q144.7 43.36 144.61 43.28Q144.28 42.99 144.07 42.56Q143.81 42 143.7 41.32Q143.6 40.63 143.6 39.89Q143.74 39.65 144.1 39.27Q144.46 38.88 145 38.6Q145.15 38.51 145.32 38.45Q145.72 38.31 146.17 38.31Q146.91 38.31 147.35 38.67Q147.53 38.82 147.66 39.03Q148.11 39.75 148.11 40.98Q148.11 42.51 147.52 43.14Q147.31 43.36 147.06 43.5ZM312.61 43.5Q312.15 43.76 311.53 43.76Q310.82 43.76 310.35 43.44Q310.25 43.36 310.16 43.28Q309.83 42.99 309.62 42.56Q309.36 42 309.25 41.32Q309.15 40.63 309.15 39.89Q309.29 39.65 309.65 39.27Q310.01 38.88 310.55 38.6Q310.7 38.51 310.87 38.45Q311.27 38.31 311.73 38.31Q312.46 38.31 312.9 38.67Q313.08 38.82 313.21 39.03Q313.66 39.75 313.66 40.98Q313.66 42.51 313.07 43.14Q312.86 43.36 312.61 43.5ZM40.74 39.34L45.9 39.34L45.9 40.81L40.74 40.81L40.74 39.34ZM252.47 39.34L257.63 39.34L257.63 40.81L252.47 40.81L252.47 39.34ZM3.24 43.55L3.24 39.75L5.23 39.75Q6.68 39.75 7.25 40.25Q7.48 40.46 7.62 40.71Q7.82 41.08 7.82 41.57Q7.82 42.23 7.52 42.7Q7.41 42.87 7.26 43.01Q6.71 43.55 5.34 43.55L3.24 43.55ZM23.44 41.37Q24.01 40.95 25.48 40.88L26.63 40.85L26.63 41.6Q26.63 42.53 26.18 43.07Q26.08 43.19 25.97 43.28Q25.82 43.41 25.66 43.51Q25.08 43.84 24.31 43.84Q23.68 43.84 23.27 43.54Q23.21 43.49 23.16 43.43Q22.88 43.13 22.88 42.56Q22.88 42.1 23.08 41.77Q23.22 41.54 23.44 41.37ZM218 41.37Q218.57 40.95 220.04 40.88L221.2 40.85L221.2 41.6Q221.2 42.53 220.74 43.07Q220.65 43.19 220.53 43.28Q220.38 43.41 220.22 43.51Q219.64 43.84 218.88 43.84Q218.24 43.84 217.84 43.54Q217.77 43.49 217.72 43.43Q217.44 43.13 217.44 42.56Q217.44 42.1 217.64 41.77Q217.78 41.54 218 41.37ZM197.93 41.74Q198.13 42.01 198.13 42.42Q198.13 42.87 197.91 43.16Q197.79 43.32 197.6 43.42Q197.07 43.71 196.13 43.71L194.16 43.71L194.16 41.16L196.1 41.16Q197.09 41.16 197.61 41.45Q197.81 41.57 197.93 41.74ZM103.33 43.41L104.96 43.41L104.88 44.02C104.7 45.39 104.1 47.09 103.83 47.83L102.62 47.83C102.78 47.13 103.14 45.58 103.27 44.04L103.33 43.41Z" fill="#242424" fill-opacity="1.000000" fill-rule="evenodd"/>
</svg>
