<svg width="12.000000" height="12.000000" viewBox="0 0 12 12" fill="none" xmlns="http://www.w3.org/2000/svg" xmlns:xlink="http://www.w3.org/1999/xlink">
	<desc>
			Created with Pixso.
	</desc>
	<defs/>
	<path id="Vector" d="M10.19 0L1.8 0C1.32 0 0.86 0.23 0.52 0.65C0.18 1.08 0 1.65 0 2.25L0 9.75C0 10.34 0.18 10.91 0.52 11.34C0.86 11.76 1.32 12 1.8 12L10.19 12C10.67 12 11.13 11.76 11.47 11.34C11.81 10.91 12 10.34 12 9.75L12 2.25C12 1.65 11.81 1.08 11.47 0.65C11.13 0.23 10.67 0 10.19 0ZM1.8 1.5L10.19 1.5C10.35 1.5 10.51 1.57 10.62 1.71C10.73 1.86 10.8 2.05 10.8 2.25L6 5.91L1.19 2.25C1.19 2.05 1.26 1.86 1.37 1.71C1.48 1.57 1.64 1.5 1.8 1.5ZM10.8 9.75C10.8 9.94 10.73 10.13 10.62 10.28C10.51 10.42 10.35 10.5 10.19 10.5L1.8 10.5C1.64 10.5 1.48 10.42 1.37 10.28C1.26 10.13 1.19 9.94 1.19 9.75L1.19 3.95L5.68 7.38C5.77 7.45 5.88 7.48 5.98 7.48C6.09 7.48 6.19 7.45 6.28 7.38L10.8 3.95L10.8 9.75Z" fill="#3575DE" fill-opacity="1.000000" fill-rule="nonzero"/>
</svg>
