<svg width="21.000000" height="21.000000" viewBox="0 0 21 21" fill="none" xmlns="http://www.w3.org/2000/svg" xmlns:xlink="http://www.w3.org/1999/xlink">
	<desc>
			Created with Pixso.
	</desc>
	<defs/>
	<path id="Vector" d="M19 10C18.73 10 18.48 10.11 18.29 10.29C18.1 10.48 18 10.74 18 11L18 17C18 17.27 17.89 17.52 17.7 17.71C17.51 17.9 17.26 18 17 18L3 18C2.73 18 2.48 17.9 2.29 17.71C2.1 17.52 2 17.27 2 17L2 3C2 2.74 2.1 2.48 2.29 2.29C2.48 2.11 2.73 2 3 2L9 2C9.26 2 9.51 1.9 9.7 1.71C9.89 1.52 10 1.27 10 1C10 0.74 9.89 0.48 9.7 0.29C9.51 0.11 9.26 0 9 0L3 0C2.2 0 1.44 0.32 0.87 0.88C0.31 1.44 0 2.2 0 3L0 17C0 17.8 0.31 18.56 0.87 19.12C1.44 19.68 2.2 20 3 20L17 20C17.79 20 18.55 19.68 19.12 19.12C19.68 18.56 20 17.8 20 17L20 11C20 10.74 19.89 10.48 19.7 10.29C19.51 10.11 19.26 10 19 10ZM4 10.76L4 15C4 15.27 4.1 15.52 4.29 15.71C4.48 15.9 4.73 16 5 16L9.24 16C9.37 16 9.5 15.98 9.62 15.93C9.74 15.88 9.85 15.8 9.94 15.71L16.86 8.78L19.71 6C19.8 5.91 19.87 5.8 19.92 5.68C19.98 5.55 20 5.42 20 5.29C20 5.16 19.98 5.03 19.92 4.91C19.87 4.78 19.8 4.67 19.71 4.58L15.47 0.29C15.37 0.2 15.26 0.12 15.14 0.07C15.02 0.02 14.89 0 14.75 0C14.62 0 14.49 0.02 14.37 0.07C14.25 0.12 14.14 0.2 14.05 0.29L11.23 3.12L4.28 10.05C4.19 10.14 4.12 10.26 4.07 10.38C4.02 10.5 4 10.63 4 10.76ZM14.75 2.41L17.58 5.24L16.16 6.66L13.33 3.83L14.75 2.41ZM6 11.17L11.92 5.24L14.75 8.07L8.83 14L6 14L6 11.17Z" fill="#3575DE" fill-opacity="1.000000" fill-rule="nonzero"/>
</svg>
