<svg width="13.000000" height="12.000000" viewBox="0 0 13 12" fill="none" xmlns="http://www.w3.org/2000/svg" xmlns:xlink="http://www.w3.org/1999/xlink">
	<desc>
			Created with Pixso.
	</desc>
	<defs/>
	<path id="Vector" d="M11.39 6C11.24 6 11.08 6.06 10.97 6.17C10.86 6.29 10.79 6.44 10.79 6.6L10.79 10.2C10.79 10.35 10.73 10.51 10.62 10.62C10.51 10.73 10.35 10.8 10.19 10.8L1.8 10.8C1.64 10.8 1.48 10.73 1.37 10.62C1.26 10.51 1.19 10.35 1.19 10.2L1.19 1.8C1.19 1.64 1.26 1.49 1.37 1.37C1.48 1.26 1.64 1.2 1.8 1.2L5.4 1.2C5.55 1.2 5.71 1.14 5.82 1.02C5.93 0.91 6 0.76 6 0.6C6 0.44 5.93 0.29 5.82 0.17C5.71 0.06 5.55 0 5.4 0L1.8 0C1.32 0 0.86 0.19 0.52 0.53C0.18 0.86 0 1.32 0 1.8L0 10.2C0 10.67 0.18 11.13 0.52 11.47C0.86 11.81 1.32 12 1.8 12L10.19 12C10.67 12 11.13 11.81 11.47 11.47C11.8 11.13 12 10.67 12 10.2L12 6.6C12 6.44 11.93 6.29 11.82 6.17C11.71 6.06 11.55 6 11.39 6ZM2.4 6.45L2.4 9C2.4 9.16 2.46 9.31 2.57 9.42C2.68 9.53 2.83 9.6 3 9.6L5.54 9.6C5.62 9.6 5.7 9.58 5.77 9.55C5.84 9.52 5.91 9.48 5.96 9.42L10.12 5.27L11.82 3.6C11.88 3.54 11.92 3.48 11.95 3.4C11.98 3.33 12 3.25 12 3.17C12 3.09 11.98 3.01 11.95 2.94C11.92 2.87 11.88 2.8 11.82 2.75L9.28 0.17C9.22 0.12 9.15 0.07 9.08 0.04C9.01 0.01 8.93 0 8.85 0C8.77 0 8.69 0.01 8.62 0.04C8.55 0.07 8.48 0.12 8.42 0.17L6.73 1.87L2.57 6.03C2.51 6.08 2.47 6.15 2.44 6.22C2.41 6.3 2.39 6.37 2.4 6.45ZM8.85 1.44L10.55 3.14L9.7 3.99L8 2.3L8.85 1.44ZM3.59 6.7L7.15 3.14L8.85 4.84L5.29 8.4L3.59 8.4L3.59 6.7Z" fill="#3575DE" fill-opacity="1.000000" fill-rule="nonzero"/>
</svg>
