<svg width="20.000000" height="20.000000" viewBox="0 0 20 20" fill="none" xmlns="http://www.w3.org/2000/svg" xmlns:xlink="http://www.w3.org/1999/xlink">
	<desc>
			Created with Pixso.
	</desc>
	<defs/>
	<path id="Vector" d="M10 0C8.02 0 6.08 0.58 4.44 1.68C2.8 2.78 1.51 4.34 0.76 6.17C0 8 -0.2 10.01 0.19 11.95C0.57 13.89 1.53 15.67 2.92 17.07C4.32 18.46 6.1 19.42 8.04 19.8C9.98 20.19 12 19.99 13.82 19.23C15.65 18.48 17.21 17.2 18.31 15.55C19.41 13.91 20 11.97 20 10C20 8.68 19.74 7.38 19.23 6.17C18.73 4.95 18 3.85 17.07 2.92C16.14 2 15.04 1.26 13.82 0.76C12.61 0.25 11.31 0 10 0ZM10 18C8.41 18 6.87 17.53 5.55 16.65C4.24 15.77 3.21 14.52 2.6 13.06C2 11.59 1.84 9.99 2.15 8.43C2.46 6.88 3.22 5.46 4.34 4.34C5.46 3.22 6.88 2.46 8.43 2.15C9.99 1.84 11.59 2 13.06 2.6C14.52 3.21 15.77 4.23 16.65 5.55C17.53 6.87 18 8.41 18 10C18 12.12 17.15 14.15 15.65 15.65C14.15 17.15 12.12 18 10 18ZM10 4C9.73 4 9.48 4.1 9.29 4.29C9.1 4.48 9 4.73 9 5L9 9.41L6.9 10.62C6.7 10.73 6.55 10.9 6.47 11.11C6.38 11.31 6.36 11.54 6.42 11.75C6.48 11.97 6.61 12.16 6.78 12.29C6.96 12.42 7.17 12.5 7.4 12.5C7.57 12.5 7.74 12.45 7.9 12.37L10.5 10.87L10.58 10.77L10.75 10.64C10.78 10.6 10.82 10.54 10.84 10.49C10.88 10.43 10.91 10.37 10.92 10.31C10.95 10.25 10.97 10.18 10.98 10.12C10.98 10.12 11 10 11 10L11 5C11 4.73 10.89 4.48 10.7 4.29C10.51 4.1 10.26 4 10 4Z" fill="#3575DE" fill-opacity="1.000000" fill-rule="nonzero"/>
</svg>
