<svg width="12.000000" height="12.000000" viewBox="0 0 12 12" fill="none" xmlns="http://www.w3.org/2000/svg" xmlns:xlink="http://www.w3.org/1999/xlink">
	<desc>
			Created with Pixso.
	</desc>
	<defs/>
	<path id="Vector" d="M6 0C4.81 0 3.65 0.35 2.66 1.01C1.67 1.67 0.91 2.6 0.45 3.7C0 4.8 -0.12 6 0.11 7.17C0.34 8.33 0.91 9.4 1.75 10.24C2.59 11.08 3.66 11.65 4.83 11.88C5.99 12.11 7.19 11.99 8.29 11.54C9.39 11.08 10.33 10.32 10.98 9.33C11.64 8.34 12 7.18 12 6C12 5.21 11.84 4.43 11.54 3.7C11.24 2.97 10.79 2.31 10.24 1.75C9.68 1.2 9.02 0.75 8.29 0.45C7.56 0.15 6.78 0 6 0ZM6 10.79C5.05 10.79 4.12 10.51 3.33 9.99C2.54 9.46 1.92 8.71 1.56 7.83C1.2 6.95 1.1 5.99 1.29 5.06C1.47 4.13 1.93 3.27 2.6 2.6C3.27 1.93 4.13 1.47 5.06 1.29C5.99 1.1 6.95 1.2 7.83 1.56C8.71 1.92 9.46 2.54 9.99 3.33C10.51 4.12 10.8 5.05 10.8 6C10.8 7.27 10.29 8.49 9.39 9.39C8.49 10.29 7.27 10.79 6 10.79ZM6 2.39C5.84 2.39 5.68 2.46 5.57 2.57C5.46 2.68 5.4 2.84 5.4 3L5.4 5.65L4.14 6.37C4.02 6.44 3.93 6.54 3.88 6.66C3.83 6.79 3.82 6.92 3.85 7.05C3.89 7.18 3.96 7.29 4.07 7.37C4.17 7.45 4.3 7.5 4.43 7.5C4.54 7.5 4.64 7.47 4.74 7.42L6.3 6.52L6.35 6.46L6.44 6.39C6.47 6.36 6.49 6.32 6.5 6.29C6.52 6.26 6.54 6.22 6.55 6.19C6.57 6.15 6.58 6.11 6.58 6.07L6.59 6L6.59 3C6.59 2.84 6.53 2.68 6.42 2.57C6.31 2.46 6.15 2.39 6 2.39Z" fill="#3575DE" fill-opacity="1.000000" fill-rule="nonzero"/>
</svg>
